PathFileType	4	(X/Y/Z)	/Users/niels/Desktop/University/Third Semester/Perception and Action/Exam/Gymnastics Motion Tracking/Code for Gym Tracking/Analyzed Data/Webcam_Backflip/id8_5_baseline_Sports2D/id8_5_baseline_Sports2D_px_person00.trc
DataRate	CameraRate	NumFrames	NumMarkers	Units	OrigDataRate	OrigDataStartFrame	OrigNumFrames
29.8125	29.8125	9	22	m	29.8125	20	160
Frame#	Time	Hip			RHip			RKnee			RAnkle			RBigToe			RSmallToe			RHeel			LHip			LKnee			LAnkle			LBigToe			LSmallToe			LHeel			Neck			Head			Nose			RShoulder			RElbow			RWrist			LShoulder			LElbow			LWrist		
		X1	Y1	Z1	X2	Y2	Z2	X3	Y3	Z3	X4	Y4	Z4	X5	Y5	Z5	X6	Y6	Z6	X7	Y7	Z7	X8	Y8	Z8	X9	Y9	Z9	X10	Y10	Z10	X11	Y11	Z11	X12	Y12	Z12	X13	Y13	Z13	X14	Y14	Z14	X15	Y15	Z15	X16	Y16	Z16	X17	Y17	Z17	X18	Y18	Z18	X19	Y19	Z19	X20	Y20	Z20	X21	Y21	Z21	X22	Y22	Z22
20	0.670859538784067	0.9497164979864018	-0.601197946924582	0.0	0.9518019941565082	-0.6005623774492167	0.0	1.016068302051222	-0.6754642397210882	0.0	0.9795071491361569	-0.7691122356382077	0.0	1.0163412879520135	-0.7848390381249573	0.0	1.0065433788043514	-0.7880282761873766	0.0	0.9687762140153093	-0.7790739915650957	0.0	0.9532053240122991	-0.5974669264976318	0.0	1.0131912077941965	-0.6720665767408315	0.0	0.9675241923353897	-0.7270921773944081	0.0	1.0128393114762146	-0.7826186051651175	0.0	1.0051771152462883	-0.7803760201217593	0.0	0.9644474749742679	-0.7721471859242419	0.0	1.024844003271801	-0.502105234782593	0.0	1.0611255798011305	-0.44887487598585174	0.0	1.0649767032603414	-0.4787371205859562	0.0	1.016844257031212	-0.5174755394270204	0.0	0.9748338090460147	-0.5606974710643996	0.0	0.9415368664413798	-0.5999647419509527	0.0	1.0152669160205265	-0.5095672954899567	0.0	0.9745356512458864	-0.5495672170172762	0.0	0.9478159689824968	-0.5871371259681656	0.0
21	0.7044025157232703	0.9491923700249982	-0.6201037133818257	0.0	0.9514062489406746	-0.6196929591780178	0.0	1.0179057694839635	-0.6924510090960204	0.0	0.9796942053296708	-0.7828377078418904	0.0	1.0133600675722976	-0.7972714321803286	0.0	1.0035784342844583	-0.8000241671847707	0.0	0.9690761594407318	-0.7925002260659167	0.0	0.9528197123379594	-0.616354696635414	0.0	1.015115377196717	-0.6891550330061774	0.0	0.9703263576058729	-0.7518071041233416	0.0	1.0133726623551758	-0.793894046748494	0.0	1.002755158613653	-0.7914696598681953	0.0	0.9651058622613288	-0.7848621186493188	0.0	1.0185485621090946	-0.5165721703778613	0.0	1.05180073346537	-0.4618925864996429	0.0	1.0578933348215258	-0.4925749041342201	0.0	1.0111944030337143	-0.5332422808525845	0.0	0.9874910664129858	-0.5813232997518747	0.0	0.9709848694857016	-0.6220829076746588	0.0	1.009072361143895	-0.5249534548425369	0.0	0.9862980436951438	-0.5699462714959533	0.0	0.9739793014291124	-0.6071228427354344	0.0
22	0.7379454926624737	0.9498088999228971	-0.6377413341066507	0.0	0.9517858777415545	-0.6376868084067783	0.0	1.0180281442539625	-0.7105748771520842	0.0	0.9799881459844294	-0.7980508809934578	0.0	1.0095590655357836	-0.8115016545787139	0.0	1.0000100014508642	-0.8137298257065977	0.0	0.9696950994528001	-0.8073890978999854	0.0	0.9531061819891603	-0.6343073083145442	0.0	1.0153729875466746	-0.7073668793443504	0.0	0.9735984147935687	-0.7783010769701205	0.0	1.0130129955089773	-0.8058248497117446	0.0	0.9999793223491709	-0.8033562314957421	0.0	0.9660865807160022	-0.7990823662339388	0.0	1.0104672475781755	-0.5286834917272837	0.0	1.0399481483431676	-0.4718170873077468	0.0	1.0484779141686378	-0.5034667826992446	0.0	1.0044973704556746	-0.5455259814429114	0.0	1.003033262578163	-0.5934574828537793	0.0	1.006641117685238	-0.6305954056039149	0.0	1.0018847672221922	-0.5377214746763328	0.0	1.0012880924126752	-0.5825453098930116	0.0	1.006446821982035	-0.6151318232933628	0.0
23	0.771488469601677	0.9517521877278077	-0.6513720514517102	0.0	0.9531664499114985	-0.6516757048051374	0.0	1.0163901458501776	-0.7269364168445888	0.0	0.9801538501976889	-0.8123228061104864	0.0	1.0056960820873495	-0.8250895877879522	0.0	0.9964203092385787	-0.8269760605031335	0.0	0.9702940070716458	-0.8215610286839976	0.0	0.9545368001238999	-0.6484116074558997	0.0	1.0138234183609842	-0.7237483246343636	0.0	0.9762223124451898	-0.8008695406231234	0.0	1.0116393782527553	-0.8169613783556539	0.0	0.9972687532839846	-0.8148602536848222	0.0	0.9671015462509198	-0.8126940205760191	0.0	1.001174776550309	-0.5367600769776053	0.0	1.0260820800363266	-0.4772280696976443	0.0	1.037156485113191	-0.5096205977580992	0.0	0.9969667563342538	-0.5525629658995116	0.0	1.0180163260794026	-0.5928283000914901	0.0	1.04096526442545	-0.6198281048627153	0.0	0.9942568414954074	-0.5457114056759439	0.0	1.0159679794296594	-0.5829156134663295	0.0	1.0380940962525878	-0.6053919483903236	0.0
24	0.8050314465408803	0.955104291652026	-0.6583068690108594	0.0	0.9558479769433179	-0.6588089148201216	0.0	1.0131863251532345	-0.738181568895521	0.0	0.9799991085155597	-0.8227577649685315	0.0	1.0024988792679208	-0.8353877844763452	0.0	0.9933714902168943	-0.8372907774864411	0.0	0.9705901788046783	-0.8324490295037228	0.0	0.9573461148289131	-0.6557779595510117	0.0	1.0106426549928054	-0.7350246663515255	0.0	0.9777882151093398	-0.8162337799598357	0.0	1.0093259121837816	-0.8256676805536861	0.0	0.9949412847853876	-0.8243886540898907	0.0	0.967862193778487	-0.8232711264058052	0.0	0.9913327697594609	-0.5389932788603666	0.0	1.010801349314374	-0.47678386598322126	0.0	1.024352448803467	-0.5093046475695961	0.0	0.9888467942581466	-0.5527452041098562	0.0	1.0280094632318701	-0.5772339120934245	0.0	1.0647723563965013	-0.588306275464136	0.0	0.9863518559761739	-0.546884578786153	0.0	1.0255280153401845	-0.568741107999176	0.0	1.0599044081091489	-0.5759528160045432	0.0
25	0.8385744234800837	0.959670564630165	-0.6563693003411698	0.0	0.9599447965233655	-0.6568644252448632	0.0	1.0089740612018534	-0.7413482394675345	0.0	0.9795751141680193	-0.8266781554561571	0.0	1.00006975542805	-0.8402393226522455	0.0	0.9910424463188936	-0.8425140213802845	0.0	0.9706073209534088	-0.8375629330252762	0.0	0.9612828555890653	-0.654132951069629	0.0	1.006351306061331	-0.7383099617812928	0.0	0.9783472900522151	-0.8225945387273451	0.0	1.006274594087733	-0.8300582287088974	0.0	0.9931045051419425	-0.8298698634539317	0.0	0.9683076150101252	-0.8283995605741685	0.0	0.9814212765389064	-0.5338824633399645	0.0	0.9946510254001943	-0.4694033139847685	0.0	1.0102812087058197	-0.501300115879713	0.0	0.9802102013996999	-0.54493222725086	0.0	1.0291382229652364	-0.5473886517403862	0.0	1.0709705986541274	-0.5396083462035987	0.0	0.9779073414763816	-0.5399280682100028	0.0	1.0260057928462758	-0.5408912200218743	0.0	1.0649020518688497	-0.5301679300885026	0.0
26	0.8721174004192871	0.9649098261205091	-0.6444377008646607	0.0	0.9651403034907466	-0.6448631241639966	0.0	1.0048950663686593	-0.7345376656695048	0.0	0.9793373941934302	-0.822134383018543	0.0	0.9980826377156378	-0.8381354818995649	0.0	0.9893452529402574	-0.8409853697394409	0.0	0.9707581787040914	-0.8348277541748945	0.0	0.9656963914222708	-0.6424389864847697	0.0	1.002011781202407	-0.7316650190142712	0.0	0.9783864656536175	-0.8189835367529148	0.0	1.002849519284457	-0.8280417536284265	0.0	0.9916029043389547	-0.8290110587428997	0.0	0.9687190576612532	-0.8258912736230783	0.0	0.9715878825958819	-0.5207786433458442	0.0	0.9779729408955987	-0.4547059984046	0.0	0.9949919654238151	-0.4853640239975756	0.0	0.9709950655822815	-0.5288823710867747	0.0	1.0195747973932592	-0.5067337528973461	0.0	1.0573550129760123	-0.48086476414141693	0.0	0.9685520370279327	-0.5247045145215562	0.0	1.015964500301778	-0.5029797234981843	0.0	1.050988908971005	-0.4750694293909075	0.0
27	0.9056603773584905	0.9699644422930132	-0.6228529978614042	0.0	0.9705826590569004	-0.6233348491805274	0.0	1.0027246377349919	-0.7171310756495114	0.0	0.980159469304306	-0.8081130434053134	0.0	0.9966977427950113	-0.8280760430352295	0.0	0.9885571024020323	-0.8314469057578795	0.0	0.9718132822845585	-0.8227460217909753	0.0	0.9697828253107116	-0.6211884440004081	0.0	0.9993210784674715	-0.7143585627328872	0.0	0.9788877986316865	-0.8050419467780535	0.0	0.9997238435167197	-0.8178652026010697	0.0	0.9903006928017577	-0.8199487555670828	0.0	0.9696873730458234	-0.8140668232721423	0.0	0.9616284397718056	-0.5001631605389985	0.0	0.9608932143622506	-0.43334399145195523	0.0	0.9785922155627061	-0.46236835123000786	0.0	0.9610827587668123	-0.5054441695958143	0.0	1.0000627096439672	-0.46036417477100283	0.0	1.0268280861226027	-0.4199375163261213	0.0	0.9580916540093162	-0.5022524607061887	0.0	0.9966254197508819	-0.4599605145965564	0.0	1.0210970505822703	-0.41843400666320574	0.0
28	0.9392033542976937	0.9738877248777715	-0.5935441875489913	0.0	0.975123976971355	-0.5942413190351227	0.0	1.0044343642976894	-0.6896379336821842	0.0	0.9830730901894331	-0.7845699873275965	0.0	0.9969212570867189	-0.8096222321914184	0.0	0.9896407282755778	-0.8131535700393313	0.0	0.9746865154869312	-0.8005884886054463	0.0	0.9729041769467601	-0.5923031868009935	0.0	1.0002594347618972	-0.6868029380792328	0.0	0.9811615281778554	-0.7811291754186043	0.0	0.9980351618796715	-0.798769364159992	0.0	0.9896460572082254	-0.8018355941030895	0.0	0.9719312412192233	-0.7921920970446236	0.0	0.9510985573621713	-0.47360514728090053	0.0	0.9435968399381567	-0.40689198830636764	0.0	0.9615055383767599	-0.4341475695690325	0.0	0.9502496864819129	-0.47650226340631097	0.0	0.9735551392672747	-0.4137238579577586	0.0	0.9858885092345814	-0.3632591201730563	0.0	0.9465889383283749	-0.47446154218433295	0.0	0.9711333925547442	-0.4167740564625042	0.0	0.9816744563323455	-0.36672550889157157	0.0
